<?xml version="1.0" encoding="UTF-8"?>
<svg width="14px" height="16px" viewBox="0 0 14 16" version="1.1" xmlns="http://www.w3.org/2000/svg" xmlns:xlink="http://www.w3.org/1999/xlink">
    <!-- Generator: sketchtool 63.1 (101010) - https://sketch.com -->
    <title>361B0324-734F-4DB9-AFD4-784AFE512D36</title>
    <desc>Created with sketchtool.</desc>
    <g id="Design" stroke="none" stroke-width="1" fill="none" fill-rule="evenodd">
        <g id="Smax-Sale-3.0-Order" transform="translate(-80.000000, -87.000000)" fill="#FFFFFF">
            <g id="Button/Large/Icon/Active" transform="translate(70.000000, 78.000000)">
                <g id="â–-icon" transform="translate(9.000000, 9.000000)">
                    <path d="M9,0 L9,4.66666667 C9,5.0013847 9.24667507,5.27848868 9.56815155,5.32610495 L9.66666667,5.33333333 L14.3333333,5.33333333 L14.3333333,15.3333333 C14.3333333,15.6680514 14.0866583,15.9451553 13.7651818,15.9927716 L13.6666667,16 L1.66666667,16 C1.33194864,16 1.05484466,15.7533249 1.00722838,15.4318484 L1,15.3333333 L1,0.666666667 C1,0.331948636 1.24667507,0.0548446557 1.56815155,0.00722837841 L1.66666667,0 L9,0 Z M8.41666667,7 L6.91666667,7 L6.91666667,9.25 L4.66666667,9.25 L4.66666667,10.75 L6.91666667,10.75 L6.91666667,13 L8.41666667,13 L8.41666667,10.75 L10.6666667,10.75 L10.6666667,9.25 L8.41666667,9.25 L8.41666667,7 Z M10.3333333,0.390666667 L13.9426667,4 L10.3333333,4 L10.3333333,0.390666667 Z" id="-"></path>
                </g>
            </g>
        </g>
    </g>
</svg>
