<?xml version="1.0" encoding="UTF-8"?>
<svg width="14px" height="14px" viewBox="0 0 14 14" version="1.1" xmlns="http://www.w3.org/2000/svg" xmlns:xlink="http://www.w3.org/1999/xlink">
    <!-- Generator: sketchtool 63.1 (101010) - https://sketch.com -->
    <title>4DA58BD7-C1D9-493B-A767-7DCA49997988</title>
    <desc>Created with sketchtool.</desc>
    <g id="Design" stroke="none" stroke-width="1" fill="none" fill-rule="evenodd">
        <g id="Smax-Sale-3.0-Order-Add-new" transform="translate(-558.000000, -327.000000)">
            <g id="Group-6" transform="translate(253.000000, 106.000000)">
                <g id="Form/Left-Icon/Placeholder-Copy-3" transform="translate(292.000000, 208.000000)">
                    <g id="Icons/Icon" transform="translate(12.000000, 12.000000)">
                        <rect id="Invisible-frame" x="0" y="0" width="16" height="16"></rect>
                        <path d="M10.5797538,14.9262981 L12.3287394,14.9262981 C12.8534351,14.9262981 13.2032323,14.576501 13.2032323,14.0518053 L13.2032323,7.93035558 L14.0777251,7.93035558 L14.0777251,7.93035558 C14.3400729,7.93035558 14.6024208,7.8429063 14.7773193,7.66800774 C15.1271165,7.31821061 15.0396672,6.79351492 14.6898701,6.44371779 L8.56842033,1.19676088 C8.2186232,0.934413039 7.7813768,0.934413039 7.43157967,1.19676088 L1.31012994,6.44371779 C0.960332815,6.79351492 0.872883533,7.31821061 1.22268066,7.66800774 C1.31012994,7.8429063 1.57247779,7.93035558 1.83482563,7.93035558 C2.0097242,7.93035558 2.70931845,7.93035558 2.70931845,7.93035558 L2.70931845,14.0518053 C2.70931845,14.576501 3.05911558,14.9262981 3.58381127,14.9262981 L5.33279691,14.9262981 C5.8574926,14.9262981 6.20728972,14.576501 6.20728972,14.0518053 L6.20728972,11.4283269 L9.705261,11.4283269 L9.705261,14.0518053 C9.705261,14.576501 10.0550581,14.9262981 10.5797538,14.9262981 Z" id="Path" fill="#303132"></path>
                    </g>
                </g>
            </g>
        </g>
    </g>
</svg>
