<svg width="15" height="16" viewBox="0 0 15 16" fill="none" xmlns="http://www.w3.org/2000/svg">
<path fill-rule="evenodd" clip-rule="evenodd" d="M0.333984 3.2974C0.333984 1.84774 1.5206 0.664062 2.97398 0.664062C4.42217 0.664062 5.60732 1.84921 5.60732 3.2974V4.66406V11.9374C5.60732 12.1674 5.56118 12.4186 5.50058 12.6372C5.4398 12.8564 5.35033 13.0937 5.23489 13.2894L5.2316 13.295L4.68597 14.1999L4.68538 14.2008C4.29403 14.8539 3.69188 15.3091 2.97065 15.3091C2.24943 15.3091 1.64729 14.8539 1.25593 14.2009L1.25533 14.1999L0.70638 13.2894C0.590946 13.0937 0.501503 12.8564 0.440722 12.6372C0.380119 12.4186 0.333984 12.1674 0.333984 11.9374V4.66406V3.2974ZM1.66732 5.33073V11.9374C1.66732 12.0074 1.68452 12.1328 1.72558 12.2809C1.766 12.4267 1.81584 12.5451 1.85359 12.6099L2.3993 13.5149C2.63463 13.908 2.86224 13.9757 2.97065 13.9757C3.07906 13.9757 3.30667 13.908 3.542 13.5149L3.54306 13.5132L4.0877 12.6099C4.12545 12.5451 4.1753 12.4267 4.21572 12.2809C4.25678 12.1328 4.27398 12.0074 4.27398 11.9374V5.33073H1.66732ZM4.27398 3.9974H1.66732V3.2974C1.66732 2.58705 2.25404 1.9974 2.97398 1.9974C3.68579 1.9974 4.27398 2.58559 4.27398 3.2974V3.9974ZM6.98953 1.35932C7.49199 0.856871 8.19151 0.664062 8.96094 0.664062H11.6276C12.397 0.664062 13.0966 0.856871 13.599 1.35932C14.1015 1.86178 14.2943 2.5613 14.2943 3.33073V12.6641C14.2943 13.4335 14.1015 14.133 13.599 14.6355C13.0966 15.1379 12.397 15.3307 11.6276 15.3307H8.96094C8.19151 15.3307 7.49199 15.1379 6.98953 14.6355C6.48708 14.133 6.29427 13.4335 6.29427 12.6641V11.9974V9.29804V9.29705V6.66406V3.9974V3.33073C6.29427 2.5613 6.48708 1.86178 6.98953 1.35932ZM7.6276 7.33073H8.96094C9.32913 7.33073 9.6276 7.03225 9.6276 6.66406C9.6276 6.29587 9.32913 5.9974 8.96094 5.9974H7.6276V4.66406H10.2943C10.6625 4.66406 10.9609 4.36559 10.9609 3.9974C10.9609 3.62921 10.6625 3.33073 10.2943 3.33073H7.6276C7.6276 2.76683 7.76813 2.46635 7.93234 2.30213C8.09656 2.13792 8.39703 1.9974 8.96094 1.9974H11.6276C12.1915 1.9974 12.492 2.13792 12.6562 2.30213C12.8204 2.46635 12.9609 2.76683 12.9609 3.33073V12.6641C12.9609 13.228 12.8204 13.5284 12.6562 13.6927C12.492 13.8569 12.1915 13.9974 11.6276 13.9974H8.96094C8.39703 13.9974 8.09656 13.8569 7.93234 13.6927C7.76813 13.5284 7.6276 13.228 7.6276 12.6641L9.6276 12.6641C9.99579 12.6641 10.2943 12.3656 10.2943 11.9974C10.2943 11.6292 9.99579 11.3307 9.6276 11.3307H7.6276V9.97077L10.2876 9.99737C10.6558 10.0011 10.9572 9.70558 10.9609 9.3374C10.9646 8.96923 10.6691 8.66779 10.3009 8.66411L7.6276 8.63737V7.33073Z" fill="#686C7B"/>
</svg>
