<?xml version="1.0" encoding="UTF-8"?>
<svg width="13px" height="14px" viewBox="0 0 13 14" version="1.1" xmlns="http://www.w3.org/2000/svg" xmlns:xlink="http://www.w3.org/1999/xlink">
    <!-- Generator: sketchtool 63.1 (101010) - https://sketch.com -->
    <title>2722A0C3-7E04-42AC-90CE-6A235EA57180</title>
    <desc>Created with sketchtool.</desc>
    <g id="Design" stroke="none" stroke-width="1" fill="none" fill-rule="evenodd">
        <g id="Smax-Sale-3.0-Order-Add-new" transform="translate(-291.000000, -327.000000)">
            <g id="Group-6" transform="translate(253.000000, 106.000000)">
                <g id="Form/Left-Icon/Placeholder-Copy-2" transform="translate(24.000000, 208.000000)">
                    <g id="Icons/Icon" transform="translate(12.000000, 12.000000)">
                        <rect id="Invisible-frame" x="0" y="0" width="16" height="16"></rect>
                        <path d="M8.11544462,1 C4.70826833,1 2,3.70826833 2,7.11544462 C2,8.77535101 2.61154446,10.3478939 3.83463339,11.4836193 C3.92199688,11.5709828 7.41653666,14.7160686 7.50390016,14.8034321 C7.85335413,15.0655226 8.3775351,15.0655226 8.63962559,14.8034321 C8.72698908,14.7160686 12.3088924,11.5709828 12.3088924,11.4836193 C13.5319813,10.3478939 14.1435257,8.77535101 14.1435257,7.11544462 C14.2308892,3.70826833 11.5226209,1 8.11544462,1 Z M8.11544462,8.86271451 C7.15444618,8.86271451 6.36817473,8.07644306 6.36817473,7.11544462 C6.36817473,6.15444618 7.15444618,5.36817473 8.11544462,5.36817473 C9.07644306,5.36817473 9.86271451,6.15444618 9.86271451,7.11544462 C9.86271451,8.07644306 9.07644306,8.86271451 8.11544462,8.86271451 Z" id="Shape" fill="#303132"></path>
                    </g>
                </g>
            </g>
        </g>
    </g>
</svg>
