<svg width="40" height="40" viewBox="0 0 40 40" fill="none" xmlns="http://www.w3.org/2000/svg">
<rect width="40" height="40" rx="10" fill="#17234E"/>
<path fill-rule="evenodd" clip-rule="evenodd" d="M28.2219 15.8891C28.2219 13.7412 29.9631 12 32.1109 12C34.2588 12 36 13.7412 36 15.8891C36 18.0369 34.2588 19.7781 32.1109 19.7781C29.9631 19.7781 28.2219 18.0369 28.2219 15.8891ZM30.1682 16.87C30.1658 16.8412 30.1658 16.8123 30.1682 16.7835V16.7533C30.1742 16.6707 30.2038 16.5916 30.2535 16.5254C30.3032 16.4591 30.3708 16.4086 30.4484 16.3797C30.526 16.3508 30.6103 16.3448 30.6911 16.3625C30.772 16.3801 30.8462 16.4206 30.9047 16.4791C30.9633 16.5377 31.0037 16.6118 31.0214 16.6927C31.039 16.7736 31.033 16.8578 31.0041 16.9354C30.9752 17.013 30.9247 17.0807 30.8585 17.1303C30.7922 17.18 30.7131 17.2096 30.6305 17.2156H30.6003H30.5139C30.4281 17.1997 30.3491 17.1581 30.2874 17.0964C30.2257 17.0347 30.1842 16.9557 30.1682 16.87ZM31.8966 18.4818C31.5943 18.4807 31.2975 18.4003 31.0359 18.2487C30.7743 18.097 30.557 17.8794 30.4058 17.6175C30.48 17.6312 30.5552 17.6385 30.6305 17.6391C30.8891 17.6397 31.1419 17.563 31.3565 17.4187C31.5075 17.5467 31.6988 17.6171 31.8966 17.6175C32.1259 17.6175 32.3457 17.5265 32.5078 17.3644C32.6698 17.2023 32.7609 16.9825 32.7609 16.7533C32.7609 16.5241 32.6698 16.3043 32.5078 16.1422C32.3457 15.9801 32.1259 15.8891 31.8966 15.8891H31.8448C31.6113 15.8832 31.384 15.8129 31.188 15.686L31.1188 15.6384C31.0209 15.5643 30.9337 15.4771 30.8596 15.3792C30.7861 15.2835 30.7278 15.1771 30.6867 15.0637C30.6265 14.9141 30.5971 14.7539 30.6003 14.5927C30.6003 14.2489 30.7369 13.9192 30.98 13.676C31.2231 13.4329 31.5528 13.2963 31.8966 13.2963C32.1925 13.2973 32.4792 13.3995 32.709 13.5859C32.7355 13.6051 32.7601 13.6268 32.7825 13.6507C32.8571 13.7304 32.8988 13.8354 32.8992 13.9445C32.8993 14.0255 32.8767 14.1049 32.8339 14.1737C32.7911 14.2424 32.7299 14.2978 32.6572 14.3334L32.5535 14.368H32.467C32.3716 14.3677 32.2789 14.3358 32.2035 14.2773L32.1602 14.2427C32.1054 14.203 32.0419 14.1768 31.9751 14.1661C31.9082 14.1554 31.8398 14.1606 31.7753 14.1813C31.7108 14.2019 31.652 14.2374 31.6038 14.2849C31.5555 14.3325 31.5191 14.3907 31.4975 14.4548C31.4759 14.519 31.4697 14.5873 31.4793 14.6544C31.4889 14.7214 31.5142 14.7852 31.553 14.8407C31.5919 14.8962 31.6432 14.9417 31.7029 14.9737C31.7626 15.0057 31.829 15.0232 31.8966 15.0248C32.3551 15.0248 32.7947 15.2069 33.1189 15.5311C33.443 15.8552 33.6251 16.2949 33.6251 16.7533C33.6251 17.2117 33.443 17.6513 33.1189 17.9755C32.7947 18.2996 32.3551 18.4818 31.8966 18.4818ZM24.6031 20.9043L27.2516 17.7027C27.5747 18.5682 28.1225 19.3242 28.824 19.8998V23.7148H26.8224V21.008L24.6031 23.7148L22.3733 21.008V23.7148H20.3718V15.8019L24.6031 20.9043ZM4 19.8361C4 17.3367 5.71118 15.8434 8.03424 15.8434C9.94247 15.8434 11.4981 16.9738 11.7988 18.8405L9.70394 19.0376C9.48616 18.0731 8.86391 17.6168 7.96165 17.6168C6.77938 17.6168 6.04305 18.5086 6.04305 19.8361C6.04305 21.3088 6.88308 22.0555 7.96165 22.0555C8.85354 22.0555 9.51727 21.5784 9.70394 20.6347L11.7988 20.811C11.4981 22.6881 9.94247 23.8289 8.03424 23.8289C5.71118 23.8289 4 22.3355 4 19.8361ZM19.3998 23.7148H17.1389L15.7596 21.1221H14.9092V23.7148H12.9076V15.9574H16.413C17.979 15.9574 18.9953 16.9115 18.9953 18.5398C18.9953 19.5872 18.5701 20.365 17.8338 20.7799L19.3998 23.7148ZM14.9092 17.7308V19.3487H16.1744C16.6722 19.3487 16.9626 19.0376 16.9626 18.5398C16.9626 18.042 16.6722 17.7308 16.1744 17.7308H14.9092Z" fill="#FCFCFC"/>
</svg>
