<?xml version="1.0" encoding="UTF-8"?>
<svg width="11px" height="14px" viewBox="0 0 11 14" version="1.1" xmlns="http://www.w3.org/2000/svg" xmlns:xlink="http://www.w3.org/1999/xlink">
    <!-- Generator: sketchtool 63.1 (101010) - https://sketch.com -->
    <title>0123453C-7596-47BB-A354-0DF9E8D6C5B7</title>
    <desc>Created with sketchtool.</desc>
    <g id="Design" stroke="none" stroke-width="1" fill="none" fill-rule="evenodd">
        <g id="Smax-Sale-3.0-Order-Add-new" transform="translate(-560.000000, -279.000000)">
            <g id="Group-6" transform="translate(253.000000, 106.000000)">
                <g id="Form/Left-Icon/Placeholder-Copy" transform="translate(292.000000, 160.000000)">
                    <g id="Icons/Icon" transform="translate(12.000000, 12.000000)">
                        <rect id="Invisible-frame" x="0" y="0" width="16" height="16"></rect>
                        <path d="M11.75,1 L4.75,1 C3.784875,1 3,1.784875 3,2.75 L3,13.25 C3,14.215125 3.784875,15 4.75,15 L11.75,15 C12.715125,15 13.5,14.215125 13.5,13.25 L13.5,2.75 C13.5,1.784875 12.715125,1 11.75,1 Z M8.25,13.25 C7.767,13.25 7.375,12.858 7.375,12.375 C7.375,11.892 7.767,11.5 8.25,11.5 C8.733,11.5 9.125,11.892 9.125,12.375 C9.125,12.858 8.733,13.25 8.25,13.25 Z M11.75,9.75 L4.75,9.75 L4.75,2.75 L11.75,2.75 L11.75,9.75 Z" id="Shape" fill="#303132"></path>
                    </g>
                </g>
            </g>
        </g>
    </g>
</svg>
