<svg width="14" height="14" viewBox="0 0 14 14" fill="none" xmlns="http://www.w3.org/2000/svg">
<path d="M13.25 7C13.25 7.19891 13.171 7.38968 13.0303 7.53033C12.8897 7.67098 12.6989 7.75 12.5 7.75H7.75V12.5C7.75 12.6989 7.67098 12.8897 7.53033 13.0303C7.38968 13.171 7.19891 13.25 7 13.25C6.80109 13.25 6.61032 13.171 6.46967 13.0303C6.32902 12.8897 6.25 12.6989 6.25 12.5V7.75H1.5C1.30109 7.75 1.11032 7.67098 0.96967 7.53033C0.829018 7.38968 0.75 7.19891 0.75 7C0.75 6.80109 0.829018 6.61032 0.96967 6.46967C1.11032 6.32902 1.30109 6.25 1.5 6.25H6.25V1.5C6.25 1.30109 6.32902 1.11032 6.46967 0.96967C6.61032 0.829018 6.80109 0.75 7 0.75C7.19891 0.75 7.38968 0.829018 7.53033 0.96967C7.67098 1.11032 7.75 1.30109 7.75 1.5V6.25H12.5C12.6989 6.25 12.8897 6.32902 13.0303 6.46967C13.171 6.61032 13.25 6.80109 13.25 7Z" fill="#FCFCFC"/>
</svg>
