<svg width="14" height="15" viewBox="0 0 14 15" fill="none" xmlns="http://www.w3.org/2000/svg">
<path d="M12.5 3H1.5C1.30109 3 1.11032 3.07902 0.96967 3.21967C0.829018 3.36032 0.75 3.55109 0.75 3.75C0.75 3.94891 0.829018 4.13968 0.96967 4.28033C1.11032 4.42098 1.30109 4.5 1.5 4.5H1.75V13C1.75164 13.331 1.88387 13.648 2.11793 13.8821C2.352 14.1161 2.66899 14.2484 3 14.25H11C11.331 14.2484 11.648 14.1161 11.8821 13.8821C12.1161 13.648 12.2484 13.331 12.25 13V4.5H12.5C12.6989 4.5 12.8897 4.42098 13.0303 4.28033C13.171 4.13968 13.25 3.94891 13.25 3.75C13.25 3.55109 13.171 3.36032 13.0303 3.21967C12.8897 3.07902 12.6989 3 12.5 3ZM10.75 12.75H3.25V4.5H10.75V12.75ZM3.75 1.25C3.75 1.05109 3.82902 0.860322 3.96967 0.71967C4.11032 0.579018 4.30109 0.5 4.5 0.5H9.5C9.69891 0.5 9.88968 0.579018 10.0303 0.71967C10.171 0.860322 10.25 1.05109 10.25 1.25C10.25 1.44891 10.171 1.63968 10.0303 1.78033C9.88968 1.92098 9.69891 2 9.5 2H4.5C4.30109 2 4.11032 1.92098 3.96967 1.78033C3.82902 1.63968 3.75 1.44891 3.75 1.25Z" fill="#EF6A6A"/>
</svg>
