<?xml version="1.0" encoding="UTF-8"?>
<svg width="17px" height="16px" viewBox="0 0 17 16" version="1.1" xmlns="http://www.w3.org/2000/svg" xmlns:xlink="http://www.w3.org/1999/xlink">
    <!-- Generator: sketchtool 63.1 (101010) - https://sketch.com -->
    <title>0E67316F-4487-439D-B7DD-445A19BF7EDE</title>
    <desc>Created with sketchtool.</desc>
    <defs>
        <path d="M6.97674419,13.9372822 C8.55813953,13.9372822 10.027907,13.398374 11.2,12.5063879 L14.4186047,15.7212544 C14.6046512,15.9070848 14.8465116,16 15.0697674,16 C15.2930233,16 15.5534884,15.9070848 15.7209302,15.7212544 C16.0930233,15.3495935 16.0930233,14.7735192 15.7209302,14.4018583 L12.5209302,11.1869919 C13.4139535,10.0162602 13.9534884,8.54819977 13.9534884,6.96864111 C13.9534884,3.12195122 10.827907,0 6.97674419,0 C3.1255814,0 0,3.12195122 0,6.96864111 C0,10.815331 3.1255814,13.9372822 6.97674419,13.9372822 Z M6.97674419,1.8583043 C9.78604651,1.8583043 12.0930233,4.14401858 12.0930233,6.96864111 C12.0930233,9.79326365 9.78604651,12.0789779 6.97674419,12.0789779 C4.16744186,12.0789779 1.86046512,9.7746806 1.86046512,6.96864111 C1.86046512,4.16260163 4.14883721,1.8583043 6.97674419,1.8583043 Z" id="path-1"></path>
    </defs>
    <g id="Design" stroke="none" stroke-width="1" fill="none" fill-rule="evenodd">
        <g id="Smax-Sale-3.0-Order" transform="translate(-706.000000, -17.000000)">
            <g id="Header" transform="translate(50.000000, 0.000000)">
                <g id="Dropdown/Right-Icon/Selected-Copy-5" transform="translate(644.510251, 8.000000)">
                    <g id="Icons/Icon" transform="translate(12.000000, 9.000000)">
                        <rect id="Invisible-frame" x="0" y="0" width="16" height="16"></rect>
                        <mask id="mask-2" fill="white">
                            <use xlink:href="#path-1"></use>
                        </mask>
                        <use id="Shape" fill="#3D4F59" xlink:href="#path-1"></use>
                    </g>
                </g>
            </g>
        </g>
    </g>
</svg>
