<svg width="14" height="14" viewBox="0 0 14 14" fill="none" xmlns="http://www.w3.org/2000/svg">
<path d="M13.7625 2.23124V5.23124C13.7625 5.43015 13.6835 5.62092 13.5428 5.76157C13.4022 5.90222 13.2114 5.98124 13.0125 5.98124H10.0125C9.81357 5.98124 9.62281 5.90222 9.48216 5.76157C9.3415 5.62092 9.26249 5.43015 9.26249 5.23124C9.26249 5.03233 9.3415 4.84156 9.48216 4.70091C9.62281 4.56026 9.81357 4.48124 10.0125 4.48124H11.2L10.3562 3.64374C9.91567 3.20267 9.39248 2.85276 8.81659 2.61403C8.2407 2.37529 7.6234 2.25241 6.99999 2.25241C6.37657 2.25241 5.75927 2.37529 5.18338 2.61403C4.60749 2.85276 4.08431 3.20267 3.64374 3.64374C3.50143 3.78195 3.31086 3.85927 3.11249 3.85927C2.91411 3.85927 2.72354 3.78195 2.58124 3.64374C2.51132 3.57406 2.45584 3.49127 2.41799 3.4001C2.38013 3.30894 2.36065 3.2112 2.36065 3.11249C2.36065 3.01378 2.38013 2.91604 2.41799 2.82487C2.45584 2.73371 2.51132 2.65092 2.58124 2.58124C3.7541 1.41107 5.34322 0.753906 6.99999 0.753906C8.65676 0.753906 10.2459 1.41107 11.4187 2.58124L12.2625 3.41874V2.23124C12.2625 2.03233 12.3415 1.84156 12.4822 1.70091C12.6228 1.56026 12.8136 1.48124 13.0125 1.48124C13.2114 1.48124 13.4022 1.56026 13.5428 1.70091C13.6835 1.84156 13.7625 2.03233 13.7625 2.23124ZM10.3562 10.3562C9.91567 10.7973 9.39248 11.1472 8.81659 11.386C8.2407 11.6247 7.6234 11.7476 6.99999 11.7476C6.37657 11.7476 5.75927 11.6247 5.18338 11.386C4.60749 11.1472 4.08431 10.7973 3.64374 10.3562L2.79999 9.51874H3.98749C4.1864 9.51874 4.37716 9.43972 4.51782 9.29907C4.65847 9.15842 4.73749 8.96765 4.73749 8.76874C4.73749 8.56983 4.65847 8.37906 4.51782 8.23841C4.37716 8.09776 4.1864 8.01874 3.98749 8.01874H0.987488C0.788575 8.01874 0.59781 8.09776 0.457158 8.23841C0.316505 8.37906 0.237488 8.56983 0.237488 8.76874V11.7687C0.237488 11.9677 0.316505 12.1584 0.457158 12.2991C0.59781 12.4397 0.788575 12.5187 0.987488 12.5187C1.1864 12.5187 1.37717 12.4397 1.51782 12.2991C1.65847 12.1584 1.73749 11.9677 1.73749 11.7687V10.5812L2.58124 11.4187C3.16116 11.9997 3.84994 12.4605 4.60816 12.775C5.36637 13.0894 6.17915 13.2512 6.99999 13.2512C7.82082 13.2512 8.6336 13.0894 9.39182 12.775C10.15 12.4605 10.8388 11.9997 11.4187 11.4187C11.4887 11.3491 11.5441 11.2663 11.582 11.1751C11.6198 11.0839 11.6393 10.9862 11.6393 10.8875C11.6393 10.7888 11.6198 10.691 11.582 10.5999C11.5441 10.5087 11.4887 10.4259 11.4187 10.3562C11.2764 10.218 11.0859 10.1407 10.8875 10.1407C10.6891 10.1407 10.4985 10.218 10.3562 10.3562Z" fill="#686C7B"/>
</svg>
