<?xml version="1.0" encoding="UTF-8"?>
<svg width="13px" height="14px" viewBox="0 0 13 14" version="1.1" xmlns="http://www.w3.org/2000/svg" xmlns:xlink="http://www.w3.org/1999/xlink">
    <!-- Generator: sketchtool 63.1 (101010) - https://sketch.com -->
    <title>EFAE16F7-8C66-481D-8265-E0689F390C2C</title>
    <desc>Created with sketchtool.</desc>
    <g id="Design" stroke="none" stroke-width="1" fill="none" fill-rule="evenodd">
        <g id="Smax-Sale-3.0-Order-Add-new" transform="translate(-291.000000, -279.000000)">
            <g id="Group-6" transform="translate(253.000000, 106.000000)">
                <g id="Form/Left-Icon/Placeholder" transform="translate(24.000000, 160.000000)">
                    <g id="Icons/Icon" transform="translate(12.000000, 12.000000)">
                        <rect id="Invisible-frame" x="0" y="0" width="16" height="16"></rect>
                        <path d="M11.6565,9.24775 C13.197375,9.75 14.25,10.897125 14.25,12.375 L14.25,12.375 L14.25,15 L2,15 L2,12.375 C2,10.897125 3.052625,9.75 4.5935,9.24775 C5.527125,10.1 6.764375,10.625 8.125,10.625 C9.485625,10.625 10.722875,10.1 11.6565,9.24775 Z M8.125,1 C10.05525,1 11.625,2.56975 11.625,4.5 L11.625,4.5 L11.625,5.375 C11.625,7.30525 10.05525,8.875 8.125,8.875 C6.19475,8.875 4.625,7.30525 4.625,5.375 L4.625,5.375 L4.625,4.5 C4.625,2.56975 6.19475,1 8.125,1 Z" id="Combined-Shape" fill="#303132"></path>
                    </g>
                </g>
            </g>
        </g>
    </g>
</svg>
