<svg width="26" height="31" viewBox="0 0 26 31" fill="none" xmlns="http://www.w3.org/2000/svg">
<path d="M10 15.0614H8V13.0534H10V15.0614ZM18 15.0614H16V13.0534H18V15.0614ZM26 13.0534V17.0694H24V22.0894C24 22.5078 23.9219 22.9 23.7656 23.266C23.6094 23.6321 23.3958 23.951 23.125 24.223C22.8542 24.4949 22.5365 24.7093 22.1719 24.8661C21.8073 25.023 21.4167 25.1015 21 25.1015H16.875L10 31V25.1015H5C4.58333 25.1015 4.19271 25.023 3.82812 24.8661C3.46354 24.7093 3.14583 24.4949 2.875 24.223C2.60417 23.951 2.39062 23.6321 2.23438 23.266C2.07812 22.9 2 22.5078 2 22.0894V17.0694H0V13.0534H2V10.0414C2 9.62303 2.07812 9.23084 2.23438 8.8648C2.39062 8.49876 2.60417 8.17978 2.875 7.90786C3.14583 7.63594 3.46354 7.42154 3.82812 7.26467C4.19271 7.10779 4.58333 7.02935 5 7.02935H12V3.75064C11.6979 3.57285 11.4583 3.32708 11.2812 3.01333C11.1042 2.69957 11.0104 2.36491 11 2.00932C11 1.72694 11.0521 1.46548 11.1562 1.22494C11.2604 0.984397 11.401 0.775229 11.5781 0.597436C11.7552 0.419643 11.9688 0.273226 12.2188 0.158183C12.4688 0.0431409 12.7292 -0.0091511 13 0.0013073C13.2812 0.0013073 13.5417 0.0535993 13.7812 0.158183C14.0208 0.262767 14.2292 0.403956 14.4062 0.581748C14.5833 0.759541 14.7292 0.973938 14.8437 1.22494C14.9583 1.47594 15.0104 1.7374 15 2.00932C15 2.36491 14.9115 2.69957 14.7344 3.01333C14.5573 3.32708 14.3125 3.57285 14 3.75064V7.02935H21C21.4167 7.02935 21.8073 7.10779 22.1719 7.26467C22.5365 7.42154 22.8542 7.63594 23.125 7.90786C23.3958 8.17978 23.6094 8.49876 23.7656 8.8648C23.9219 9.23084 24 9.62303 24 10.0414V13.0534H26ZM22 10.0414C22 9.76945 21.901 9.53414 21.7031 9.33543C21.5052 9.13672 21.2708 9.03736 21 9.03736H5C4.72917 9.03736 4.49479 9.13672 4.29688 9.33543C4.09896 9.53414 4 9.76945 4 10.0414V22.0894C4 22.3614 4.09896 22.5967 4.29688 22.7954C4.49479 22.9941 4.72917 23.0935 5 23.0935H12V26.6388L16.125 23.0935H21C21.2708 23.0935 21.5052 22.9941 21.7031 22.7954C21.901 22.5967 22 22.3614 22 22.0894V10.0414ZM8.70312 17.289C9.27604 17.8643 9.93229 18.3035 10.6719 18.6068C11.4115 18.9101 12.1875 19.067 13 19.0774C13.8125 19.0774 14.5885 18.9258 15.3281 18.6225C16.0677 18.3192 16.724 17.8747 17.2969 17.289L18.7031 18.7166C17.9427 19.4801 17.0729 20.0657 16.0937 20.4736C15.1146 20.8815 14.0833 21.0854 13 21.0854C11.9271 21.0854 10.901 20.8815 9.92187 20.4736C8.94271 20.0657 8.06771 19.4801 7.29687 18.7166L8.70312 17.289Z" fill="#253362"/>
</svg>
