<svg width="23" height="23" viewBox="0 0 23 23" fill="none" xmlns="http://www.w3.org/2000/svg">
<path d="M9.16667 9.28917C9.16667 9.11987 9.20001 8.95223 9.2648 8.79582C9.32959 8.63941 9.42454 8.4973 9.54425 8.37759C9.66396 8.25788 9.80608 8.16292 9.96249 8.09813C10.1189 8.03335 10.2865 8 10.4558 8H12.5442C12.7135 8 12.8811 8.03335 13.0375 8.09813C13.1939 8.16292 13.336 8.25788 13.4557 8.37759C13.5755 8.4973 13.6704 8.63941 13.7352 8.79582C13.8 8.95223 13.8333 9.11987 13.8333 9.28917V20.7108C13.8333 21.0527 13.6975 21.3806 13.4557 21.6224C13.214 21.8642 12.8861 22 12.5442 22H10.4558C10.1139 22 9.78602 21.8642 9.54425 21.6224C9.30249 21.3806 9.16667 21.0527 9.16667 20.7108V9.28917ZM17.3333 2.28917C17.3333 2.11987 17.3667 1.95223 17.4315 1.79582C17.4963 1.63942 17.5912 1.4973 17.7109 1.37759C17.9527 1.13582 18.2806 1 18.6225 1H20.7108C20.8801 1 21.0478 1.03335 21.2042 1.09813C21.3606 1.16292 21.5027 1.25788 21.6224 1.37759C21.7421 1.4973 21.8371 1.63942 21.9019 1.79582C21.9667 1.95223 22 2.11987 22 2.28917V20.7108C22 21.0527 21.8642 21.3806 21.6224 21.6224C21.3806 21.8642 21.0527 22 20.7108 22H18.6225C18.2806 22 17.9527 21.8642 17.7109 21.6224C17.4692 21.3806 17.3333 21.0527 17.3333 20.7108V2.28917ZM1 19.6667C1 20.2855 1.24583 20.879 1.68342 21.3166C2.121 21.7542 2.71449 22 3.33333 22C3.95217 22 4.54566 21.7542 4.98325 21.3166C5.42083 20.879 5.66667 20.2855 5.66667 19.6667C5.66667 19.0478 5.42083 18.4543 4.98325 18.0168C4.54566 17.5792 3.95217 17.3333 3.33333 17.3333C2.71449 17.3333 2.121 17.5792 1.68342 18.0168C1.24583 18.4543 1 19.0478 1 19.6667Z" stroke="#253362" stroke-width="2" stroke-linecap="round" stroke-linejoin="round"/>
</svg>
