<svg width="7" height="8" viewBox="0 0 7 8" fill="none" xmlns="http://www.w3.org/2000/svg">
<path d="M6.89744 7.14681C6.92995 7.18113 6.95575 7.22188 6.97334 7.26672C6.99094 7.31157 7 7.35963 7 7.40817C7 7.45672 6.99094 7.50478 6.97334 7.54963C6.95575 7.59447 6.92995 7.63522 6.89744 7.66954C6.86492 7.70387 6.82632 7.73109 6.78383 7.74967C6.74135 7.76824 6.69581 7.7778 6.64982 7.7778C6.60384 7.7778 6.5583 7.76824 6.51582 7.74967C6.47333 7.73109 6.43473 7.70387 6.40221 7.66954L3.5 4.60563L0.597786 7.66954C0.532116 7.73886 0.443047 7.7778 0.350175 7.7778C0.257303 7.7778 0.168234 7.73886 0.102564 7.66954C0.0368933 7.60022 1.83073e-09 7.50621 0 7.40817C-1.83073e-09 7.31014 0.0368933 7.21613 0.102564 7.14681L3.00521 4.08336L0.102564 1.01991C0.0368933 0.950594 -6.91952e-10 0.856577 0 0.758545C6.91952e-10 0.660513 0.0368933 0.566497 0.102564 0.497178C0.168234 0.427859 0.257303 0.388916 0.350175 0.388916C0.443047 0.388916 0.532116 0.427859 0.597786 0.497178L3.5 3.56109L6.40221 0.497178C6.46788 0.427859 6.55695 0.388916 6.64982 0.388916C6.7427 0.388916 6.83177 0.427859 6.89744 0.497178C6.96311 0.566497 7 0.660513 7 0.758545C7 0.856577 6.96311 0.950594 6.89744 1.01991L3.99478 4.08336L6.89744 7.14681Z" fill="#253362"/>
</svg>
