<svg width="14" height="14" viewBox="0 0 14 14" fill="none" xmlns="http://www.w3.org/2000/svg">
<path fill-rule="evenodd" clip-rule="evenodd" d="M13.3062 3.10707L13.7966 3.89366V3.89949C13.9933 4.21827 14.0461 4.59597 13.9435 4.95055C13.8409 5.30513 13.5913 5.60793 13.2488 5.79315C13.0205 5.91406 12.8316 6.08886 12.701 6.29935C12.6014 6.4573 12.5366 6.63191 12.5102 6.81313C12.4839 6.99435 12.4966 7.1786 12.5475 7.35528C12.5984 7.53196 12.6866 7.69757 12.8069 7.84259C12.9273 7.98762 13.0775 8.10918 13.2488 8.20029C13.4199 8.2914 13.5699 8.4129 13.6901 8.55781C13.8103 8.70272 13.8984 8.86818 13.9493 9.04469C14.0002 9.22119 14.0129 9.40527 13.9867 9.58633C13.9605 9.7674 13.8959 9.94189 13.7966 10.0998L13.2779 10.9002C13.0776 11.2188 12.749 11.4509 12.3641 11.5458C11.9792 11.6406 11.5694 11.5905 11.2243 11.4064C11.0047 11.2906 10.7568 11.2265 10.5041 11.22C10.3061 11.219 10.1097 11.2544 9.92654 11.324C9.74334 11.3937 9.57688 11.4963 9.43679 11.6258C9.2967 11.7554 9.18575 11.9094 9.11036 12.0789C9.03497 12.2484 8.99664 12.43 8.99758 12.6133C8.99443 13.3809 8.32145 14 7.49262 14H6.50479C5.6736 14 4.99904 13.3758 4.99904 12.6067C4.99668 12.3722 4.92741 12.142 4.79833 11.9403C4.70062 11.782 4.56998 11.6432 4.41396 11.5319C4.25793 11.4206 4.07962 11.3391 3.88932 11.2919C3.69902 11.2448 3.50052 11.233 3.30528 11.2573C3.11003 11.2816 2.92193 11.3414 2.75183 11.4334C2.57881 11.5232 2.38833 11.5804 2.19131 11.6019C1.9943 11.6234 1.79464 11.6086 1.60382 11.5585C1.41299 11.5083 1.23475 11.4238 1.07934 11.3097C0.923937 11.1956 0.794426 11.0542 0.69825 10.8937L0.200794 10.1005C0.00222673 9.78214 -0.0516101 9.40384 0.0511151 9.04875C0.15384 8.69367 0.404722 8.39085 0.748625 8.20685C0.977637 8.08459 1.16782 7.90869 1.30005 7.69684C1.43228 7.48498 1.5019 7.24465 1.5019 7C1.5019 6.75535 1.43228 6.51502 1.30005 6.30317C1.16782 6.09131 0.977637 5.91541 0.748625 5.79315C0.404451 5.6079 0.153587 5.30404 0.0509196 4.94806C-0.0517477 4.59208 0.00214041 4.21297 0.200794 3.89366L0.727373 3.09323C0.926402 2.77364 1.25426 2.54012 1.63907 2.44387C2.02388 2.34762 2.43423 2.39648 2.78017 2.57975C2.99846 2.69987 3.2472 2.76445 3.50116 2.76694C3.89686 2.76697 4.27666 2.62288 4.55844 2.36582C4.84022 2.10877 5.00133 1.75941 5.00691 1.3933C5.00598 1.2107 5.04403 1.02973 5.11888 0.860772C5.19373 0.691814 5.3039 0.538199 5.44307 0.408742C5.58224 0.279285 5.74768 0.176537 5.92988 0.106394C6.11208 0.036251 6.30745 9.50952e-05 6.50479 6.06219e-07H7.49183C7.69333 -0.000173314 7.89282 0.0370767 8.07848 0.109545C8.26414 0.182013 8.43219 0.288225 8.57267 0.421887C8.71316 0.55555 8.82322 0.713944 8.89635 0.887686C8.96947 1.06143 9.00416 1.24698 8.99837 1.43336C9.00079 1.66796 9.07002 1.89783 9.19908 2.09978C9.29872 2.25723 9.43096 2.39493 9.58822 2.50499C9.74548 2.61506 9.92466 2.69533 10.1155 2.74121C10.3064 2.78708 10.5051 2.79765 10.7004 2.77232C10.8956 2.74699 11.0836 2.68626 11.2534 2.59359C11.5994 2.41032 12.0097 2.36145 12.3945 2.45771C12.7794 2.55396 13.1072 2.78748 13.3062 3.10707ZM9 7C9 8.10457 8.10457 9 7 9C5.89543 9 4.99999 8.10457 4.99999 7C4.99999 5.89543 5.89543 5 7 5C8.10457 5 9 5.89543 9 7Z" fill="#17234E"/>
</svg>
