<svg width="26" height="24" viewBox="0 0 26 24" fill="none" xmlns="http://www.w3.org/2000/svg">
<path d="M17 19H8.86004C8.76102 18.6493 8.61646 18.3131 8.43004 18L19 7.43001C19.602 7.7994 20.2938 7.99656 21 8.00001C21.7487 8.00244 22.4831 7.7947 23.1195 7.40042C23.756 7.00615 24.269 6.44116 24.6002 5.76974C24.9315 5.09832 25.0676 4.34741 24.9932 3.60243C24.9188 2.85745 24.6368 2.14831 24.1793 1.55568C23.7218 0.963051 23.1071 0.510716 22.4052 0.250133C21.7034 -0.0104499 20.9424 -0.0688203 20.209 0.0816618C19.4756 0.232144 18.7992 0.585438 18.2566 1.10135C17.7141 1.61727 17.3272 2.2751 17.14 3.00001H8.86004C8.61665 2.05735 8.03782 1.23582 7.23204 0.689408C6.42626 0.142996 5.44886 -0.0907835 4.48304 0.031891C3.51723 0.154565 2.62931 0.625271 1.98572 1.35578C1.34213 2.08628 0.987061 3.02644 0.987061 4.00001C0.987061 4.97358 1.34213 5.91374 1.98572 6.64424C2.62931 7.37475 3.51723 7.84545 4.48304 7.96813C5.44886 8.0908 6.42626 7.85702 7.23204 7.31061C8.03782 6.7642 8.61665 5.94267 8.86004 5.00001H17.14C17.2391 5.3507 17.3836 5.6869 17.57 6.00001L7.00004 16.57C6.39808 16.2006 5.7063 16.0035 5.00004 16C4.25136 15.9976 3.51703 16.2053 2.88057 16.5996C2.24412 16.9939 1.73109 17.5589 1.39985 18.2303C1.06861 18.9017 0.932457 19.6526 1.00688 20.3976C1.0813 21.1426 1.3633 21.8517 1.82081 22.4443C2.27832 23.037 2.89298 23.4893 3.59485 23.7499C4.29672 24.0105 5.05764 24.0688 5.79105 23.9184C6.52445 23.7679 7.2009 23.4146 7.74345 22.8987C8.286 22.3827 8.67287 21.7249 8.86004 21H17V24H25V16H17V19ZM5.00004 6.00001C4.60448 6.00001 4.2178 5.88271 3.8889 5.66295C3.56001 5.44319 3.30366 5.13083 3.15228 4.76538C3.00091 4.39992 2.9613 3.99779 3.03847 3.60983C3.11564 3.22187 3.30613 2.8655 3.58583 2.5858C3.86554 2.30609 4.2219 2.11561 4.60986 2.03844C4.99783 1.96127 5.39996 2.00087 5.76541 2.15225C6.13086 2.30363 6.44322 2.55997 6.66298 2.88887C6.88275 3.21777 7.00004 3.60445 7.00004 4.00001C7.00004 4.53044 6.78933 5.03915 6.41426 5.41422C6.03918 5.7893 5.53048 6.00001 5.00004 6.00001ZM21 2.00001C21.3956 2.00001 21.7823 2.11731 22.1112 2.33707C22.4401 2.55683 22.6964 2.86919 22.8478 3.23464C22.9992 3.60009 23.0388 4.00223 22.9616 4.39019C22.8844 4.77815 22.694 5.13452 22.4143 5.41422C22.1346 5.69393 21.7782 5.88441 21.3902 5.96158C21.0023 6.03875 20.6001 5.99914 20.2347 5.84777C19.8692 5.69639 19.5569 5.44005 19.3371 5.11115C19.1173 4.78225 19 4.39557 19 4.00001C19 3.46958 19.2108 2.96087 19.5858 2.5858C19.9609 2.21072 20.4696 2.00001 21 2.00001ZM5.00004 22C4.60448 22 4.2178 21.8827 3.8889 21.6629C3.56001 21.4432 3.30366 21.1308 3.15228 20.7654C3.00091 20.3999 2.9613 19.9978 3.03847 19.6098C3.11564 19.2219 3.30613 18.8655 3.58583 18.5858C3.86554 18.3061 4.2219 18.1156 4.60986 18.0384C4.99783 17.9613 5.39996 18.0009 5.76541 18.1523C6.13086 18.3036 6.44322 18.56 6.66298 18.8889C6.88275 19.2178 7.00004 19.6044 7.00004 20C7.00004 20.5304 6.78933 21.0392 6.41426 21.4142C6.03918 21.7893 5.53048 22 5.00004 22ZM19 18H23V22H19V18Z" fill="#AFB2BD"/>
</svg>
