<svg width="13" height="14" viewBox="0 0 13 14" fill="none" xmlns="http://www.w3.org/2000/svg">
<path fill-rule="evenodd" clip-rule="evenodd" d="M0.772119 3.76574C0.284946 4.14465 0 4.72726 0 5.34444V12.0663C0 12.4376 0.1475 12.7937 0.41005 13.0562C0.672601 13.3188 1.0287 13.4663 1.4 13.4663H11.2C11.5713 13.4663 11.9274 13.3188 12.1899 13.0562C12.4525 12.7937 12.6 12.4376 12.6 12.0663V5.34444C12.6 4.72726 12.3151 4.14465 11.8279 3.76574L7.52788 0.421296C6.80566 -0.140432 5.79434 -0.140432 5.07212 0.421295L0.772119 3.76574ZM6.5 7.46628C5.67157 7.46628 5 8.13785 5 8.96628V10.9663C5 11.2424 5.22386 11.4663 5.5 11.4663H7.5C7.77614 11.4663 8 11.2424 8 10.9663V8.96628C8 8.13785 7.32843 7.46628 6.5 7.46628Z" fill="#17234E"/>
</svg>
