<svg width="20" height="26" viewBox="0 0 20 26" fill="none" xmlns="http://www.w3.org/2000/svg">
<path fill-rule="evenodd" clip-rule="evenodd" d="M2.6875 16.25C2.04103 16.25 1.42105 15.9932 0.963927 15.5361C0.506807 15.079 0.25 14.459 0.25 13.8125L0.25 12.1875C0.25 11.541 0.506807 10.921 0.963927 10.4639C1.42105 10.0068 2.04103 9.75 2.6875 9.75H4.3125C4.95897 9.75 5.57895 10.0068 6.03607 10.4639C6.49319 10.921 6.75 11.541 6.75 12.1875H8.375L8.375 3.25C8.375 3.03451 8.4606 2.82785 8.61298 2.67548C8.76535 2.5231 8.97201 2.4375 9.1875 2.4375H10.8125C11.028 2.4375 11.2347 2.5231 11.387 2.67548C11.5394 2.82785 11.625 3.03451 11.625 3.25C11.625 3.46549 11.5394 3.67215 11.387 3.82452C11.2347 3.9769 11.028 4.0625 10.8125 4.0625H10L10 12.1875H10.8125C11.028 12.1875 11.2347 12.2731 11.387 12.4255C11.5394 12.5778 11.625 12.7845 11.625 13C11.625 13.2155 11.5394 13.4222 11.387 13.5745C11.2347 13.7269 11.028 13.8125 10.8125 13.8125H10V21.9375H10.8125C11.028 21.9375 11.2347 22.0231 11.387 22.1755C11.5394 22.3278 11.625 22.5345 11.625 22.75C11.625 22.9655 11.5394 23.1722 11.387 23.3245C11.2347 23.4769 11.028 23.5625 10.8125 23.5625H9.1875C8.97201 23.5625 8.76535 23.4769 8.61298 23.3245C8.4606 23.1722 8.375 22.9655 8.375 22.75V13.8125H6.75C6.75 14.459 6.49319 15.079 6.03607 15.5361C5.57895 15.9932 4.95897 16.25 4.3125 16.25H2.6875ZM5.125 12.1875C5.125 11.972 5.0394 11.7653 4.88702 11.613C4.73465 11.4606 4.52799 11.375 4.3125 11.375H2.6875C2.47201 11.375 2.26535 11.4606 2.11298 11.613C1.9606 11.7653 1.875 11.972 1.875 12.1875L1.875 13.8125C1.875 14.028 1.9606 14.2347 2.11298 14.387C2.26535 14.5394 2.47201 14.625 2.6875 14.625H4.3125C4.52799 14.625 4.73465 14.5394 4.88702 14.387C5.0394 14.2347 5.125 14.028 5.125 13.8125V12.1875ZM15.6875 26C15.041 26 14.421 25.7432 13.9639 25.2861C13.5068 24.829 13.25 24.209 13.25 23.5625V21.9375C13.25 21.291 13.5068 20.671 13.9639 20.2139C14.421 19.7568 15.041 19.5 15.6875 19.5H17.3125C17.959 19.5 18.579 19.7568 19.0361 20.2139C19.4932 20.671 19.75 21.291 19.75 21.9375V23.5625C19.75 24.209 19.4932 24.829 19.0361 25.2861C18.579 25.7432 17.959 26 17.3125 26H15.6875ZM14.875 23.5625C14.875 23.778 14.9606 23.9847 15.113 24.137C15.2653 24.2894 15.472 24.375 15.6875 24.375H17.3125C17.528 24.375 17.7347 24.2894 17.887 24.137C18.0394 23.9847 18.125 23.778 18.125 23.5625V21.9375C18.125 21.722 18.0394 21.5153 17.887 21.363C17.7347 21.2106 17.528 21.125 17.3125 21.125H15.6875C15.472 21.125 15.2653 21.2106 15.113 21.363C14.9606 21.5153 14.875 21.722 14.875 21.9375V23.5625ZM15.6875 16.25C15.041 16.25 14.421 15.9932 13.9639 15.5361C13.5068 15.079 13.25 14.459 13.25 13.8125V12.1875C13.25 11.541 13.5068 10.921 13.9639 10.4639C14.421 10.0068 15.041 9.75 15.6875 9.75H17.3125C17.959 9.75 18.579 10.0068 19.0361 10.4639C19.4932 10.921 19.75 11.541 19.75 12.1875V13.8125C19.75 14.459 19.4932 15.079 19.0361 15.5361C18.579 15.9932 17.959 16.25 17.3125 16.25H15.6875ZM14.875 13.8125C14.875 14.028 14.9606 14.2347 15.113 14.387C15.2653 14.5394 15.472 14.625 15.6875 14.625H17.3125C17.528 14.625 17.7347 14.5394 17.887 14.387C18.0394 14.2347 18.125 14.028 18.125 13.8125V12.1875C18.125 11.972 18.0394 11.7653 17.887 11.613C17.7347 11.4606 17.528 11.375 17.3125 11.375H15.6875C15.472 11.375 15.2653 11.4606 15.113 11.613C14.9606 11.7653 14.875 11.972 14.875 12.1875V13.8125ZM15.6875 6.5C15.041 6.5 14.421 6.24319 13.9639 5.78607C13.5068 5.32895 13.25 4.70897 13.25 4.0625V2.4375C13.25 1.79103 13.5068 1.17105 13.9639 0.713926C14.421 0.256807 15.041 0 15.6875 0H17.3125C17.959 0 18.579 0.256807 19.0361 0.713926C19.4932 1.17105 19.75 1.79103 19.75 2.4375V4.0625C19.75 4.70897 19.4932 5.32895 19.0361 5.78607C18.579 6.24319 17.959 6.5 17.3125 6.5H15.6875ZM14.875 4.0625C14.875 4.27799 14.9606 4.48465 15.113 4.63702C15.2653 4.7894 15.472 4.875 15.6875 4.875H17.3125C17.528 4.875 17.7347 4.7894 17.887 4.63702C18.0394 4.48465 18.125 4.27799 18.125 4.0625V2.4375C18.125 2.22201 18.0394 2.01535 17.887 1.86298C17.7347 1.7106 17.528 1.625 17.3125 1.625H15.6875C15.472 1.625 15.2653 1.7106 15.113 1.86298C14.9606 2.01535 14.875 2.22201 14.875 2.4375V4.0625Z" fill="#253362"/>
</svg>
