<svg width="28" height="21" viewBox="0 0 28 21" fill="none" xmlns="http://www.w3.org/2000/svg">
<path d="M13.9362 13.188C18.2295 13.188 21.8955 13.8687 21.8955 16.5924C21.8955 19.3151 18.2531 20.0205 13.9362 20.0205C9.64278 20.0205 5.97683 19.3399 5.97683 16.6172C5.97683 13.8935 9.61926 13.188 13.9362 13.188ZM20.8007 11.5479C22.4421 11.5175 24.2068 11.7429 24.8588 11.9029C26.2403 12.1745 27.1489 12.7289 27.5254 13.5347C27.8436 14.1962 27.8436 14.9636 27.5254 15.624C26.9495 16.8737 25.093 17.2749 24.3715 17.3786C24.2225 17.4011 24.1026 17.2715 24.1183 17.1216C24.4869 13.6586 21.5548 12.0167 20.7963 11.6392C20.7638 11.6223 20.7571 11.5964 20.7604 11.5806C20.7627 11.5693 20.7761 11.5513 20.8007 11.5479ZM6.89089 11.5456L7.19997 11.5484C7.22462 11.5518 7.23695 11.5698 7.23919 11.5799C7.24255 11.5968 7.23583 11.6216 7.20445 11.6397C6.44482 12.0172 3.51273 13.6591 3.88135 17.121C3.89703 17.272 3.77827 17.4004 3.62925 17.379C2.90772 17.2754 1.05121 16.8742 0.475326 15.6244C0.156011 14.9629 0.156011 14.1966 0.475326 13.5351C0.85178 12.7294 1.75931 12.1749 3.14076 11.9022C3.79395 11.7433 5.55747 11.518 7.19997 11.5484L6.89089 11.5456ZM13.9362 0C16.8593 0 19.2032 2.35525 19.2032 5.29649C19.2032 8.23661 16.8593 10.5941 13.9362 10.5941C11.013 10.5941 8.66916 8.23661 8.66916 5.29649C8.66916 2.35525 11.013 0 13.9362 0ZM21.0865 0.883274C23.9099 0.883274 26.1271 3.55518 25.372 6.53136C24.8622 8.53501 23.0169 9.8659 20.961 9.81181C20.7548 9.80617 20.552 9.78701 20.3559 9.75321C20.2137 9.72841 20.142 9.56727 20.2226 9.44781C21.0069 8.28709 21.4539 6.89085 21.4539 5.39205C21.4539 3.8279 20.9654 2.36967 20.1173 1.17402C20.0904 1.13683 20.0702 1.07936 20.0971 1.03653C20.1195 1.0016 20.161 0.98357 20.2002 0.974554C20.4859 0.915955 20.7795 0.883274 21.0865 0.883274ZM6.91259 0.883162C7.21958 0.883162 7.51313 0.915842 7.79995 0.974442C7.83804 0.983457 7.88062 1.00261 7.90303 1.03642C7.92879 1.07924 7.90975 1.13672 7.88286 1.17391C7.03471 2.36956 6.54622 3.82778 6.54622 5.39194C6.54622 6.89073 6.99326 8.28698 7.77754 9.4477C7.85821 9.56715 7.7865 9.7283 7.64421 9.75309C7.44702 9.78803 7.24535 9.80606 7.0392 9.81169C4.98326 9.86578 3.13796 8.5349 2.62818 6.53125C1.87191 3.55507 4.08918 0.883162 6.91259 0.883162Z" fill="#253362"/>
</svg>
