<svg width="16" height="16" viewBox="0 0 16 16" fill="none" xmlns="http://www.w3.org/2000/svg">
<path fill-rule="evenodd" clip-rule="evenodd" d="M7.31258 0.583313C6.23955 0.583404 5.1821 0.840101 4.22845 1.33199C3.2748 1.82387 2.45261 2.53668 1.83047 3.41095C1.20834 4.28522 0.804295 5.29559 0.652056 6.35776C0.499817 7.41994 0.603797 8.50312 0.95532 9.51694C1.30684 10.5308 1.89572 11.4458 2.67281 12.1858C3.4499 12.9257 4.39268 13.4691 5.42249 13.7706C6.45229 14.0721 7.53927 14.1229 8.59272 13.9189C9.64617 13.7148 10.6356 13.2618 11.4783 12.5976L14.3695 15.4888C14.5188 15.633 14.7188 15.7128 14.9264 15.711C15.1339 15.7092 15.3325 15.626 15.4793 15.4792C15.626 15.3324 15.7093 15.1338 15.7111 14.9263C15.7129 14.7187 15.6331 14.5187 15.4889 14.3694L12.5977 11.4782C13.3799 10.486 13.8669 9.29355 14.003 8.03743C14.1391 6.78131 13.9189 5.51225 13.3674 4.37547C12.816 3.23869 11.9556 2.28014 10.8848 1.6095C9.81402 0.938856 8.57605 0.583228 7.31258 0.583313ZM2.16675 7.31248C2.16675 5.94772 2.70889 4.63886 3.67392 3.67383C4.63896 2.70879 5.94782 2.16665 7.31258 2.16665C8.67734 2.16665 9.9862 2.70879 10.9512 3.67383C11.9163 4.63886 12.4584 5.94772 12.4584 7.31248C12.4584 8.67724 11.9163 9.9861 10.9512 10.9511C9.9862 11.9162 8.67734 12.4583 7.31258 12.4583C5.94782 12.4583 4.63896 11.9162 3.67392 10.9511C2.70889 9.9861 2.16675 8.67724 2.16675 7.31248Z" fill="#253362"/>
</svg>
