<svg width="19" height="22" viewBox="0 0 19 22" fill="none" xmlns="http://www.w3.org/2000/svg">
<path d="M8.5419 2C4.85939 2 1.8982 5.14 1.8982 9C1.8982 11.8 3.44523 14.19 5.6946 15.31V20H12.3383V17H13.2874C14.3409 17 15.1856 16.11 15.1856 15V12H16.6093C17.0079 12 17.2357 11.5 17.0079 11.19L15.1856 8.66C15.102 6.86329 14.3654 5.16939 13.1285 3.92945C11.8915 2.6895 10.2492 1.99861 8.5419 2ZM8.5419 0C12.8983 0 16.5049 3.42 17.0269 7.9L18.5075 10H18.5359L18.5549 10.03C19.0769 10.79 19.1434 11.79 18.7352 12.62C18.3936 13.31 17.7861 13.79 17.0838 13.94V15C17.0838 16.85 15.869 18.42 14.2365 18.87V22H3.7964V16.5C1.42365 14.83 0 12.06 0 9C0 4.03 3.83436 0 8.5419 0ZM4.4323 8.3L6.29253 8.81L4.92583 10.27C4.59365 10.61 4.59365 11.19 4.92583 11.54C5.25802 11.89 5.80849 11.89 6.13119 11.54L7.50738 10.1L8.00092 12.06C8.11481 12.55 8.57987 12.82 9.01645 12.7C9.12696 12.6708 9.2309 12.6189 9.32228 12.5472C9.41367 12.4756 9.49069 12.3855 9.54891 12.2824C9.60714 12.1792 9.64541 12.0649 9.66154 11.9461C9.67766 11.8272 9.67131 11.7062 9.64286 11.59L9.13984 9.63L11.0001 10.16C11.1104 10.19 11.2252 10.1967 11.338 10.1797C11.4508 10.1627 11.5593 10.1224 11.6572 10.061C11.7551 9.99967 11.8406 9.91852 11.9086 9.82223C11.9766 9.72595 12.0259 9.61644 12.0536 9.5C12.1675 9.05 11.9017 8.55 11.4461 8.43L9.58591 7.91L10.9526 6.46C11.0954 6.28817 11.1709 6.06558 11.1637 5.83732C11.1565 5.60907 11.0672 5.39222 10.914 5.23073C10.7607 5.06925 10.5549 4.97519 10.3382 4.96762C10.1216 4.96006 9.91034 5.03956 9.74726 5.19L8.36157 6.63L7.87753 4.67C7.76364 4.18 7.28909 3.9 6.84301 4.03C6.37795 4.16 6.11221 4.65 6.23559 5.13L6.73861 7.1L4.86888 6.57C4.41332 6.44 3.94826 6.72 3.82487 7.21C3.70149 7.68 3.96724 8.18 4.4323 8.3Z" fill="#3C2562"/>
</svg>
