<svg width="23" height="23" viewBox="0 0 23 23" fill="none" xmlns="http://www.w3.org/2000/svg">
<path d="M10.35 12.65V16.1C10.35 16.4258 10.4604 16.6991 10.6812 16.9199C10.902 17.1407 11.1749 17.2508 11.5 17.25C11.8258 17.25 12.0992 17.1396 12.32 16.9188C12.5408 16.698 12.6508 16.4251 12.65 16.1V12.65H16.1C16.4258 12.65 16.6991 12.5396 16.9199 12.3188C17.1407 12.098 17.2508 11.8251 17.25 11.5C17.25 11.1742 17.1396 10.9008 16.9188 10.68C16.698 10.4592 16.4251 10.3492 16.1 10.35H12.65V6.9C12.65 6.57417 12.5396 6.30085 12.3188 6.08005C12.098 5.85925 11.8251 5.74923 11.5 5.75C11.1742 5.75 10.9008 5.8604 10.68 6.0812C10.4592 6.302 10.3492 6.57493 10.35 6.9V10.35H6.9C6.57417 10.35 6.30085 10.4604 6.08005 10.6812C5.85925 10.902 5.74923 11.1749 5.75 11.5C5.75 11.8258 5.8604 12.0992 6.0812 12.32C6.302 12.5408 6.57493 12.6508 6.9 12.65H10.35ZM11.5 23C9.90917 23 8.41417 22.6979 7.015 22.0938C5.61583 21.4897 4.39875 20.6705 3.36375 19.6362C2.32875 18.6012 1.50957 17.3842 0.9062 15.985C0.302833 14.5858 0.000766667 13.0908 0 11.5C0 9.90917 0.302067 8.41417 0.9062 7.015C1.51033 5.61583 2.32952 4.39875 3.36375 3.36375C4.39875 2.32875 5.61583 1.50957 7.015 0.9062C8.41417 0.302833 9.90917 0.000766667 11.5 0C13.0908 0 14.5858 0.302067 15.985 0.9062C17.3842 1.51033 18.6012 2.32952 19.6362 3.36375C20.6712 4.39875 21.4908 5.61583 22.0949 7.015C22.6991 8.41417 23.0008 9.90917 23 11.5C23 13.0908 22.6979 14.5858 22.0938 15.985C21.4897 17.3842 20.6705 18.6012 19.6362 19.6362C18.6012 20.6712 17.3842 21.4908 15.985 22.0949C14.5858 22.6991 13.0908 23.0008 11.5 23ZM11.5 20.7C14.0683 20.7 16.2437 19.8087 18.0262 18.0262C19.8087 16.2437 20.7 14.0683 20.7 11.5C20.7 8.93167 19.8087 6.75625 18.0262 4.97375C16.2437 3.19125 14.0683 2.3 11.5 2.3C8.93167 2.3 6.75625 3.19125 4.97375 4.97375C3.19125 6.75625 2.3 8.93167 2.3 11.5C2.3 14.0683 3.19125 16.2437 4.97375 18.0262C6.75625 19.8087 8.93167 20.7 11.5 20.7Z" fill="white"/>
</svg>
