<svg width="20" height="22" viewBox="0 0 20 22" fill="none" xmlns="http://www.w3.org/2000/svg">
<path d="M8.19265 12.6668L19 1.29297M8.19265 12.6668L11.6314 19.9047C11.6745 20.0037 11.7437 20.0876 11.8307 20.1464C11.9178 20.2052 12.0191 20.2365 12.1226 20.2365C12.2261 20.2365 12.3274 20.2052 12.4144 20.1464C12.5015 20.0876 12.5707 20.0037 12.6138 19.9047L19 1.29297M8.19265 12.6668L1.31525 9.04785C1.22119 9.00248 1.14148 8.92965 1.08559 8.838C1.02971 8.74635 1 8.63975 1 8.53085C1 8.42196 1.02971 8.31535 1.08559 8.22371C1.14148 8.13206 1.22119 8.05923 1.31525 8.01386L19 1.29297" stroke="white" stroke-width="2" stroke-linecap="round" stroke-linejoin="round"/>
</svg>
