<svg width="24" height="25" viewBox="0 0 24 25" fill="none" xmlns="http://www.w3.org/2000/svg">
<path d="M12.0046 9.09624C11.1578 9.09624 10.3649 9.42036 9.76449 10.0127C9.16694 10.6051 8.8356 11.3874 8.8356 12.2229C8.8356 13.0583 9.16694 13.8406 9.76449 14.433C10.3649 15.0226 11.1578 15.3495 12.0046 15.3495C12.8514 15.3495 13.6443 15.0226 14.2447 14.433C14.8423 13.8406 15.1736 13.0583 15.1736 12.2229C15.1736 11.3874 14.8423 10.6051 14.2447 10.0127C13.9515 9.72116 13.6024 9.49001 13.2179 9.33268C12.8333 9.17535 12.4209 9.09498 12.0046 9.09624ZM23.681 15.6764L21.8288 14.1145C21.9166 13.5836 21.9619 13.0415 21.9619 12.5023C21.9619 11.963 21.9166 11.4181 21.8288 10.8901L23.681 9.32815C23.8209 9.20998 23.921 9.05258 23.9681 8.8769C24.0151 8.70121 24.0068 8.51556 23.9443 8.34462L23.9188 8.27198C23.4091 6.86567 22.6454 5.56212 21.6646 4.42448L21.6136 4.3658C21.4945 4.22764 21.3358 4.12832 21.1583 4.08094C20.9809 4.03355 20.793 4.04033 20.6196 4.10036L18.32 4.90786C17.4704 4.22051 16.5245 3.67845 15.4993 3.30125L15.0547 0.929043C15.0211 0.750338 14.9333 0.585933 14.8028 0.45767C14.6722 0.329407 14.5053 0.243358 14.324 0.210956L14.2476 0.196985C12.7749 -0.0656617 11.223 -0.0656617 9.75033 0.196985L9.67387 0.210956C9.49261 0.243358 9.32564 0.329407 9.19513 0.45767C9.06462 0.585933 8.97676 0.750338 8.94321 0.929043L8.49576 3.31242C7.48028 3.69263 6.5343 4.23338 5.69491 4.91345L3.37833 4.10036C3.20491 4.03985 3.01694 4.03283 2.83938 4.08024C2.66183 4.12766 2.5031 4.22726 2.38429 4.3658L2.33332 4.42448C1.35427 5.56333 0.590706 6.86656 0.0790443 8.27198L0.0535562 8.34462C-0.0738839 8.69389 0.0309003 9.08506 0.316933 9.32815L2.19172 10.9068C2.10393 11.4321 2.06145 11.9686 2.06145 12.4995C2.06145 13.0359 2.10393 13.5724 2.19172 14.0921L0.322596 15.6708C0.182683 15.789 0.0825458 15.9464 0.0354993 16.122C-0.0115473 16.2977 -0.00327368 16.4834 0.0592202 16.6543L0.0847082 16.727C0.597301 18.1324 1.35345 19.4317 2.33898 20.5745L2.38996 20.6331C2.50906 20.7713 2.66779 20.8706 2.84524 20.918C3.02269 20.9654 3.21052 20.9586 3.38399 20.8986L5.70057 20.0855C6.54451 20.7701 7.48473 21.3121 8.50142 21.6865L8.94888 24.0699C8.98242 24.2486 9.07028 24.413 9.20079 24.5413C9.3313 24.6695 9.49827 24.7556 9.67953 24.788L9.756 24.802C11.2431 25.066 12.7661 25.066 14.2532 24.802L14.3297 24.788C14.5109 24.7556 14.6779 24.6695 14.8084 24.5413C14.9389 24.413 15.0268 24.2486 15.0603 24.0699L15.505 21.6977C16.5301 21.3177 17.476 20.7784 18.3256 20.0911L20.6252 20.8986C20.7986 20.9591 20.9866 20.9661 21.1642 20.9187C21.3417 20.8713 21.5004 20.7717 21.6193 20.6331L21.6702 20.5745C22.6558 19.4261 23.4119 18.1324 23.9245 16.727L23.95 16.6543C24.0718 16.3078 23.967 15.9195 23.681 15.6764ZM12.0046 17.1349C9.25473 17.1349 7.02595 14.9359 7.02595 12.2229C7.02595 9.50977 9.25473 7.3108 12.0046 7.3108C14.7545 7.3108 16.9833 9.50977 16.9833 12.2229C16.9833 14.9359 14.7545 17.1349 12.0046 17.1349Z" fill="#AFB2BD"/>
</svg>
